<?xml version="1.0" encoding="utf-8"?>
<!-- Generator: Adobe Illustrator 27.5.0, SVG Export Plug-In . SVG Version: 6.00 Build 0)  -->
<svg version="1.1" id="Layer_1" xmlns="http://www.w3.org/2000/svg" xmlns:xlink="http://www.w3.org/1999/xlink" x="0px" y="0px"
	 viewBox="0 0 2760 2000" style="enable-background:new 0 0 2760 2000;" xml:space="preserve">
<rect style="fill:#FFFFFF;" width="2760" height="2000"/>
<g>
	<path style="opacity:0.2;fill:#9BC1F9;" d="M405.953,1829.09h2089.004c173.152-141.195,84.045-566.067-60.582-652.197
		c-155.678-92.711,91.528-413.348-148.288-517.42c-156.579-67.95-405.613,6.112-372.116-175.69
		c46.449-252.102-496.479-316.694-896.47-248.738c-432.439,73.469-37.537,434.688-513.091,507.465
		c-244.534,37.422-197.281,357.599-174.48,423.762c19.859,57.627,151.243,149.031-31.352,274.905
		C30.828,1625.752,399.641,1825.692,405.953,1829.09z"/>
	<path style="fill:#F7CC7F;" d="M1654.215,835.018c-29.38-35.444-36.655-80.536-65.098-117.041
		c-10.521-13.504-31.145-29.356-46.377-37.168c-67.73-34.733-132.493,16.737-143.474,88.319
		c-5.857,38.184-4.989,86.429,6.049,136.155c10.659,0.062,20.965-0.154,30.938-0.61l5.057-32.303l6.716,31.343
		c58.804-5.644,120.063-21.007,154.807-37.633l-6.299-30.442l18.295,24.395C1630.37,851.785,1643.424,843.202,1654.215,835.018z"/>
	<path style="fill:#F7A491;" d="M1291.377,1069.42l173.26-42.108c0,0,61.276-82.182,120.289-153.044
		c18.155,17.241,28.603,44.091,46.88,61.158l-129.847,149.733c-4.683,5.4-11.426,8.576-18.571,8.748l-184.466,4.429
		L1291.377,1069.42z"/>
	<path style="fill:#184655;" d="M1565.299,1021.682c0,0,82.386-67.805,100.119-98.504c17.733-30.699,4.58-82.131-25.868-90.208
		c-30.448-8.077-129.803,130.901-129.803,130.901L1565.299,1021.682z"/>
	<g>
		<path style="fill:#F7A491;" d="M1240.667,1075.295c-1.817-2.8,2.74-7.549,6.157-11.111c3.788-3.947,26.716-13.857,30.615-15.049
			c3.9-1.191,37.315,3.52,50.108,7.71c12.792,4.191,21.22,2.47,21.22,2.47c3.354-0.686,8.396-1.604,12.312-2.414l8.02,29.834
			c-30.029-0.38-61.428,1.855-64.275,1.783c-9.023-0.227-25.552-9.672-29.387-11.058c-3.834-1.387-11.601-0.292-16.822,2.156
			c-5.221,2.448-20.421,8.264-22.966,6.91C1233.104,1085.172,1240.667,1075.295,1240.667,1075.295z"/>
	</g>
	<path style="fill:#F7A491;" d="M1555.938,806.092c0,0,14.776-9.395,15.448-9.843c0.671-0.448,9.403,10.398,10.299,12.251
		c0.896,1.854,3.357,18.868,1.343,19.764c-2.015,0.896-12.957,6.487-13.979,5.371
		C1568.027,832.519,1555.938,806.092,1555.938,806.092z"/>
	<path style="fill:#F7A491;" d="M1568.755,1773.766c1.555-14.65,1.462-37.076,0.401-62.927l51.079-1.672
		c-4.115,36.784-7.341,65.415-7.341,65.415l1.649,11.531l1.151,34.17l-111.747,3.657c0,0,23.37-11.401,55.86-33.487
		C1562.211,1788.82,1567.703,1783.684,1568.755,1773.766z"/>
	<path style="fill:#13375B;" d="M1617.128,1828.731l-116.171,3.803c-4.31-0.248-5.471-3.726-4.053-5.938
		c2.922-4.557,16.367-8.27,31.368-15.868c26.812,1.941,82.275-18.342,86.29-24.681
		C1617.402,1798.383,1619.498,1828.123,1617.128,1828.731z"/>
	<path style="fill:#F7A491;" d="M1383.973,1757.123c6.03-13.441,12.913-34.787,19.938-59.687l49.069,14.286
		c-15.344,33.683-27.308,59.894-27.308,59.894l-2.017,11.473l-9.524,32.836l-107.35-31.253c0,0,25.756-3.574,63.501-14.469
		C1373.075,1769.397,1379.891,1766.222,1383.973,1757.123z"/>
	<path style="fill:#13375B;" d="M1412.867,1824.4l-111.6-32.49c-4.019-1.574-4.042-5.241-2.006-6.903
		c4.193-3.424,18.127-2.773,34.746-5.334c24.881,10.178,83.903,8.136,89.688,3.358
		C1422.561,1795.639,1415.31,1824.559,1412.867,1824.4z"/>
	<path style="fill:#3C8F7C;" d="M1822.807,1206.404c0,0-206.868,19.701-277.615,42.985s-98.509,58.21-109.256,112.837
		c-10.746,54.628-54.627,344.781-54.627,344.781l71.643,8.955l74.329-195.227c0,0,65.374-220.301,68.956-220.301
		s181.794-30.448,181.794-30.448L1822.807,1206.404z"/>
	<path style="fill:#50BFA5;" d="M1982.212,1222.523c-18.929-89.516-193.436-10.746-193.436-10.746s-208.659-2.687-273.138,59.105
		c-64.479,61.791,45.672,464.781,45.672,464.781l63.583-5.175l3.982-184.142c0.329-15.247-0.819-30.49-3.429-45.517l-25.629-147.56
		c0,0,268.661,25.971,303.586,19.702C1938.33,1366.705,2001.141,1312.039,1982.212,1222.523z"/>
	<path style="fill:#F7A491;" d="M1628.703,832.957c0,0-53.219-7.926-74.472-30.56l-19.022,46.986c0,0,32.325,26.145,35.27,42.903
		c2.943,16.758,4.964,73.197,4.964,73.197l28.374-15.406c0,0,32.504-71.176,31.473-79.633
		C1634.258,861.986,1628.703,832.957,1628.703,832.957z"/>
	<path style="fill:#CAE1F9;" d="M1297.116,431.089l31.306,42.293c2.479,1.187,4.693-0.205,10.211-3.603
		c9.871-6.078,19.746-12.158,29.819-17.884c1.585-0.901,4.671-0.683,6.314,0.287c9.773,5.765,19.2,12.121,29.028,17.784
		c3.046,1.755,4.329,3.137,4.032,6.83c-1.188,14.761-1.962,29.555-2.879,44.174c12.372,5.41,45.296,10.715,56.858,9.044
		c3.396-13.695,7.077-27.635,10.205-41.698c0.974-4.377,2.507-5.84,7.157-6.622c10.787-1.814,21.442-4.62,31.979-7.622
		c4.268-1.216,7.082-1.46,10.284,2.358c8.302,9.894,17.202,19.283,25.672,29.04c2.276,2.622,4.363,3.374,7.198,1.31
		c13.337-9.71,26.662-19.439,39.996-29.153c3.278-2.388,1.083-4.772-0.167-6.913c-6.324-10.832-12.594-21.703-19.274-32.313
		c-2.509-3.984-2.312-6.665,0.424-10.58c7.239-10.358,13.803-21.189,21.16-32.65c14.584,0.859,30.686,1.808,47.236,2.783
		c6.094-18.296,8.684-36.939,8.405-56.633c-15.605-3.933-31.217-7.868-44.974-11.335c-3.898-14.581-7.21-28.166-11.299-41.513
		c-1.184-3.863-0.493-5.684,2.281-8.084c9.628-8.331,18.997-16.962,28.567-25.36c2.069-1.816,3.335-3.336,1.803-6.202
		c-7.742-14.477-16.6-28.108-28.377-39.733c-2.626-2.591-4.566-2.403-7.363-0.735c-11.259,6.715-22.646,13.216-33.877,19.977
		c-2.721,1.638-4.457,1.878-7.49-0.054c-10.522-6.7-21.348-12.955-32.308-18.918c-2.8-1.524-3.183-3.061-3.026-5.715
		c0.871-14.789,1.634-29.584,2.454-44.756c-18.277-5.636-36.576-9.083-55.914-8.887c-4.013,15.919-7.999,31.734-11.813,46.869
		c-15.334,3.705-30.181,7.292-46.067,11.129c-7.578-8.439-16.238-18.225-25.062-27.862c-7.241-7.91-5.228-8.29-15.118-2.468
		c-0.944,0.556-2.089,0.769-3.141,1.141c-7.945,5.881-15.89,11.762-23.835,17.643c-1.525,1.623-2.839,3.538-4.615,4.812
		c-4.618,3.315-5.456,6.497-2.097,11.699c6.999,10.84,13.322,22.124,19.653,33.377c0.829,1.474,0.775,4.242-0.068,5.731
		c-5.503,9.714-11.864,18.977-16.838,28.94c-2.434,4.875-4.958,5.807-9.891,5.426c-13.991-1.08-28.026-1.584-43.452-2.388
		c-3.014,18.939-5.953,37.413-8.926,56.096c3.462,0.942,5.445,1.517,7.447,2.021c12.343,3.109,24.66,6.331,37.055,9.218
		c3.52,0.82,4.569,2.524,5.372,5.952c2.758,11.778,6.272,23.377,9.109,35.138c0.44,1.824-0.519,4.804-1.904,6.114
		c-7.585,7.174-15.566,13.927-23.297,20.951C1298.82,425.231,1296.517,427.364,1297.116,431.089z M1394.396,390.188
		c-27.983-37.804-20.021-91.133,17.781-119.116l0.001,0c37.803-27.982,91.133-20.021,119.115,17.783l0,0
		c27.983,37.803,20.021,91.133-17.782,119.116l0,0C1475.709,435.953,1422.379,427.991,1394.396,390.188L1394.396,390.188z"/>
	<path style="fill:#9BC1F9;" d="M1741.586,593.866l-3.796,70.779c1.556,3.36,5.049,3.816,13.694,5.024
		c15.464,2.162,30.935,4.324,46.309,7.024c2.42,0.425,5.435,3.3,6.31,5.718c5.199,14.373,9.531,29.063,14.874,43.378
		c1.656,4.437,1.803,6.974-1.675,10.552c-13.901,14.306-27.402,29.001-40.902,43.392c8.203,16.235,37.832,50.001,51.271,58.189
		c15.279-11.305,31.065-22.618,46.383-34.534c4.768-3.708,7.615-3.912,13.114-0.732c12.757,7.375,26.227,13.606,39.744,19.533
		c5.474,2.4,8.605,4.563,8.654,11.275c0.126,17.397,1.309,34.784,1.729,52.183c0.112,4.676,1.634,7.248,6.349,7.538
		c22.181,1.365,44.364,2.701,66.546,4.06c5.453,0.334,5.22-4.026,5.76-7.321c2.729-16.673,5.552-33.341,7.722-50.091
		c0.814-6.29,3.321-8.904,9.521-10.621c16.406-4.541,32.517-10.153,49.991-15.737c14.404,13.409,30.307,28.213,46.653,43.43
		c22.029-13.766,40.719-30.897,57.332-51.584c-12.826-17.477-25.656-34.96-36.965-50.367c8.468-18.484,16.689-35.431,23.898-52.797
		c2.087-5.027,4.365-6.325,9.307-6.436c17.146-0.386,34.28-1.307,51.426-1.811c3.706-0.109,6.324-0.602,7.193-4.892
		c4.387-21.676,6.889-43.429,4.639-65.607c-0.502-4.944-2.678-6.414-7.014-7.083c-17.453-2.691-34.855-5.716-52.318-8.334
		c-4.23-0.634-6.238-1.875-7.729-6.484c-5.175-15.987-11.046-31.771-17.307-47.369c-1.6-3.985-0.679-5.91,1.763-8.531
		c13.597-14.606,27.086-29.312,40.961-44.36c-14.14-21.539-30.181-40.822-50.426-57.216c-17.827,13.083-35.54,26.082-52.49,38.521
		c-19.1-9.314-37.592-18.333-57.38-27.982c-0.626-15.266-1.219-32.859-2.107-50.436c-0.729-14.427,1.688-13.094-13.578-15.537
		c-1.456-0.233-2.828-0.994-4.24-1.51c-13.296-0.713-26.593-1.426-39.888-2.139c-2.977,0.376-5.984,1.236-8.922,1.036
		c-7.639-0.522-11.24,2.063-12.217,10.346c-2.037,17.262-5.156,34.404-8.242,51.522c-0.404,2.242-2.835,5.069-4.989,5.891
		c-14.051,5.362-28.605,9.521-42.32,15.596c-6.711,2.973-10.131,1.773-14.925-2.855c-13.6-13.129-27.738-25.698-43.064-39.772
		c-19.383,17.076-38.291,33.734-57.412,50.58c2.786,3.949,4.352,6.249,5.997,8.489c10.146,13.821,20.169,27.737,30.561,41.373
		c2.951,3.872,2.577,6.543,0.469,10.79c-7.245,14.595-13.553,29.654-20.7,44.3c-1.108,2.271-4.661,4.542-7.224,4.713
		c-14.033,0.938-28.114,1.099-42.17,1.757C1748.383,589.246,1744.161,589.484,1741.586,593.866z M1877.688,634.892
		c3.393-63.265,57.43-111.801,120.694-108.408l0,0c63.265,3.393,111.801,57.429,108.408,120.694l0,0
		c-3.393,63.265-57.43,111.801-120.694,108.408l0,0C1922.832,752.193,1874.296,698.157,1877.688,634.892L1877.688,634.892z"/>
	<path style="opacity:0.2;fill:#9BC1F9;" d="M1701.289,312.093l14.634,27.66c1.352,0.919,2.778,0.298,6.325-1.207
		c6.346-2.693,12.694-5.387,19.128-7.855c1.013-0.389,2.808,0.015,3.688,0.732c5.232,4.261,10.208,8.839,15.48,13.046
		c1.635,1.304,2.267,2.231,1.762,4.375c-2.015,8.573-3.789,17.202-5.633,25.716c6.792,4.284,25.677,10.341,32.624,10.39
		c3.218-7.75,6.626-15.617,9.72-23.606c0.963-2.487,1.995-3.21,4.799-3.255c6.504-0.105,13.019-0.803,19.482-1.629
		c2.617-0.334,4.294-0.227,5.837,2.304c3.998,6.558,8.394,12.872,12.503,19.364c1.104,1.745,2.265,2.373,4.115,1.413
		c8.708-4.52,17.41-9.051,26.117-13.573c2.141-1.112,1.063-2.709,0.519-4.08c-2.753-6.933-5.469-13.884-8.45-20.718
		c-1.12-2.566-0.765-4.126,1.192-6.183c5.181-5.444,10.006-11.227,15.354-17.309c8.498,1.806,17.88,3.8,27.524,5.85
		c5.215-10.214,8.401-20.944,9.994-32.548c-8.825-3.705-17.652-7.411-25.432-10.677c-0.991-8.921-1.727-17.203-2.94-25.416
		c-0.351-2.377,0.217-3.386,2.063-4.55c6.404-4.039,12.683-8.278,19.059-12.362c1.379-0.883,2.259-1.665,1.613-3.486
		c-3.261-9.203-7.253-18.007-13.141-25.893c-1.313-1.758-2.47-1.82-4.264-1.089c-7.219,2.944-14.494,5.75-21.7,8.724
		c-1.746,0.72-2.788,0.706-4.398-0.7c-5.59-4.878-11.396-9.521-17.309-14.005c-1.511-1.146-1.599-2.084-1.271-3.63
		c1.832-8.618,3.601-17.248,5.437-26.096c-10.244-4.944-20.696-8.603-32.083-10.213c-3.779,9.002-7.533,17.945-11.127,26.503
		c-9.347,0.811-18.396,1.595-28.078,2.434c-3.703-5.638-7.922-12.164-12.25-18.617c-3.552-5.297-2.334-5.341-8.669-2.799
		c-0.604,0.242-1.297,0.266-1.948,0.391c-5.196,2.749-10.392,5.498-15.588,8.248c-1.041,0.818-1.985,1.826-3.143,2.417
		c-3.011,1.537-3.787,3.333-2.276,6.691c3.148,6.998,5.86,14.196,8.578,21.378c0.356,0.94,0.078,2.563-0.551,3.363
		c-4.103,5.221-8.669,10.1-12.481,15.514c-1.866,2.649-3.434,2.972-6.3,2.308c-8.13-1.883-16.337-3.431-25.335-5.28
		c-3.462,10.867-6.838,21.467-10.252,32.186c1.951,0.863,3.066,1.378,4.198,1.853c6.979,2.929,13.934,5.922,20.964,8.725
		c1.997,0.796,2.462,1.892,2.628,3.979c0.57,7.171,1.602,14.304,2.222,21.472c0.096,1.112-0.733,2.778-1.665,3.425
		c-5.101,3.541-10.396,6.8-15.566,10.24C1702.813,308.801,1701.27,309.849,1701.289,312.093z M1762.134,296.722
		c-13.08-24.723-3.642-55.369,21.081-68.449l0,0c24.723-13.08,55.369-3.642,68.449,21.081l0,0
		c13.081,24.723,3.643,55.369-21.08,68.449h-0.001C1805.86,330.884,1775.215,321.445,1762.134,296.722L1762.134,296.722z"/>
	<g>
		<path style="fill:#B75742;" d="M1073.014,897.042h224.105c5.93,0,11.271,3.583,13.521,9.069l69.004,168.298h123.551
			c3.455,0,6.255,2.799,6.255,6.25l0,0c0,3.453-2.8,6.251-6.255,6.251h-351.636c-9.667,0-18.435-5.674-22.394-14.493
			l-69.482-154.778C1055.343,907.971,1062.416,897.042,1073.014,897.042z"/>
		<path style="fill:#FFFFFF;" d="M1193.672,995.043c1.514,7.559,8.108,12.615,14.728,11.291c6.62-1.323,10.759-8.524,9.246-16.084
			c-1.514-7.559-8.107-12.614-14.728-11.291C1196.298,980.282,1192.159,987.483,1193.672,995.043z"/>
	</g>
	<polygon style="fill:#13375B;" points="1717.315,1829.09 1604.912,1111.823 1582.84,1115.282 1694.701,1829.09 	"/>
	<polygon style="fill:#13375B;" points="828.487,1829.09 940.891,1111.823 962.963,1115.282 851.102,1829.09 	"/>
	<path style="fill:#13375B;" d="M1693.053,1122.232H852.75c-9.838,0-17.814-8.645-17.814-19.309l0,0
		c0-10.664,7.976-19.31,17.814-19.31h840.302c9.838,0,17.814,8.646,17.814,19.31l0,0
		C1710.867,1113.588,1702.891,1122.232,1693.053,1122.232z"/>
	
		<rect x="912.914" y="1369.475" transform="matrix(-1 -1.224647e-16 1.224647e-16 -1 2553.3296 2762.6982)" style="fill:#13375B;" width="727.502" height="23.749"/>
	<g>
		<path style="fill:#215E4B;" d="M619.174,1656.079h6.128c2.019-20.625,5.987-43.41,13.05-67.248
			c26.71-90.149,15.024-101.813,60.099-158.167c45.075-56.354,48.414-173.215,48.414-173.215s21.703-132.72,0-191.149
			c-21.702-58.431-23.372-116.86-75.959-178.629c0,0-10.017,82.637-22.537,120.199c-12.521,37.563-24.41,73.455-15.127,163.605
			c9.284,90.149,15.05,97.661,17.175,121.033s-1.214,121.891,3.794,138.157c5.009,16.266-29.215,128.952-31.719,177.365
			C621.739,1622.576,620.385,1639.161,619.174,1656.079z"/>
		<path style="fill:#3C8F7C;" d="M638.373,1656.079c8.696-20.063,24.005-39.999,50.809-51.965
			c70.116-31.302,117.417-30.606,149.97-105.73c32.554-75.125,32.554-177.795,43.823-199.08c0,0-30.05-5.008-60.1,48.831
			s-50.434,93.905-67.787,125.207c-17.354,31.302-42.396,22.537-63.681,46.327c-17.838,19.938-34.31,66.318-40.568,89.854
			c-2.033,7.646-4.988,15.01-8.888,21.893c-3.547,6.26-7.721,13.877-10.226,19.303c-0.557,1.207-1.11,3.048-1.654,5.36H638.373z"/>
		<path style="fill:#215E4B;" d="M440.524,1300.02c-5.008,64.273,35.893,59.265,37.563,100.166
			c1.669,40.901,55.091,110.183,79.84,159.431c12.872,25.615,17.625,64.774,19.224,96.463h19.885
			c-7.691-80.203-40.233-136.029-59.685-180.77c-25.042-57.595-28.798-83.889-7.513-128.964
			c21.285-45.074-10.017-161.517,20.286-213.43c30.301-51.912,14.772-133.393,7.803-164.695c-6.97-31.302,0.709-52.587,6.97-85.588
			c6.261-33-6.97-80.938-6.97-80.938c-1.127,40.901-32.262,96.827-54.799,132.72c-22.537,35.893-65.107,133.554-60.1,177.794
			c5.009,44.24,2.504,47.578,2.504,47.578C429.673,1219.053,445.532,1235.746,440.524,1300.02z"/>
		<path style="fill:#3C8F7C;" d="M559.833,1603.852c2.557,7.672,10.755,27.265,18.258,52.228h12.194
			c-5.548-31.777-15.124-68.653-31.288-89.79c-32.554-42.57-97.661-60.934-105.174-91.818
			c-7.512-30.885,0.835-123.538-46.744-175.29c0,0,6.678,57.617,0,73.049c-6.678,15.431-63.438,87.217-30.05,147.315
			c33.389,60.1,108.513,52.588,131.885,65.943C532.288,1598.843,555.66,1591.331,559.833,1603.852z"/>
		<path style="fill:#3C8F7C;" d="M529.784,1326.675c-0.835,61.769,47.579,85.141,46.744,119.364
			c-0.835,34.224,10.017,70.951,19.198,98.496c5.813,17.438,2.595,65.982,1.567,111.544h13.434
			c3.383-33.481,7.09-81.787,5.867-103.196c-1.669-29.216,11.686-52.587,13.356-103.505c1.669-50.918,12.52-96.827-10.017-161.1
			c-22.537-64.273-18.363-141.067-112.686-212.018c0,0-16.694,75.124-4.173,116.024
			C515.594,1233.187,530.619,1264.906,529.784,1326.675z"/>
		<path style="fill:#327F6B;" d="M529.784,1326.675c-0.835,61.769,47.579,85.141,46.744,119.364
			c-0.835,34.224,10.017,70.95,19.198,98.496c5.813,17.438,2.595,65.982,1.567,111.544h5.575c0.754-9.518,1.483-15.496,1.483-15.496
			l2.783-115.19c0,0-5.565-90.148-15.582-163.604c-10.017-73.454-84.306-285.527-84.306-285.527s-16.694,75.124-4.173,116.024
			C515.594,1233.187,530.619,1264.906,529.784,1326.675z"/>
		<path style="fill:#F7CC7F;" d="M625.34,1603.368h-9.01H496.055c-8.84,0-15.361,8.271-13.318,16.888l47.129,198.737
			c1.466,6.181,6.977,10.545,13.317,10.545h73.147h9.01h73.147c6.34,0,11.851-4.364,13.317-10.545l47.129-198.737
			c2.044-8.617-4.478-16.888-13.317-16.888H625.34z"/>
	</g>
	<polygon style="fill:#50BFA5;" points="1411.067,601.539 1415.388,622.289 1445.063,632.303 1447.254,657.58 1440.753,636.536 
		1409.055,627.985 	"/>
	<polygon style="fill:#F47458;" points="1523.484,571.459 1542.462,576.733 1508.221,631.637 1522.896,586.686 1502.332,579.581 
		1536.924,529.3 	"/>
	<polygon style="fill:#466EB6;" points="1599.818,629.68 1610.095,638.92 1571.437,662.722 1594.693,639.063 1583.993,628.178 
		1621.429,607.391 	"/>
	<path style="fill:#466EB6;" d="M1628.703,832.957c0,0,60.133-9.655,138.371,47.521c78.239,57.176,198.672,255.936,209.148,325.926
		c0,0-161.004,10.221-193.162,3.142c0,0,5.853-54.674-8.606-74.865c-14.458-20.191-21.431-59.882-66.033-75.687
		c-18.996-6.732-40.266-7.621-60.357-10.229c-36.286-4.709-65.331-32.387-71.662-68.424l-0.36-2.047
		c-1.686-9.597-0.563-19.476,3.231-28.45L1628.703,832.957z"/>
	<g>
		<path style="fill:#13375B;" d="M1901.619,1828.39l-32.555-0.163c4.296-178.505,8.08-449.596,0.901-464.803
			c0.021,0.043,0.477,0.978,2.167,2.046l26.418-8.66c4.27,2.699,6.847,4.328,7.738,80.238c0.459,39.065,0.284,93.012-0.52,160.341
			C1904.402,1712.001,1901.646,1827.238,1901.619,1828.39z"/>
		<path style="fill:#13375B;" d="M1996.995,1808.019h-219.626c-10.116,0-18.316,8.2-18.316,18.316l0,0
			c0,1.769,1.434,3.203,3.203,3.203h249.853c1.77,0,3.203-1.435,3.203-3.203l0,0
			C2015.312,1816.219,2007.111,1808.019,1996.995,1808.019z"/>
		<path style="fill:#13375B;" d="M1901.292,1789.953h-26.903c-7.96,0-14.412,6.453-14.412,14.412l0,0
			c0,7.96,6.452,14.413,14.412,14.413h26.903c7.96,0,14.413-6.453,14.413-14.413l0,0
			C1915.705,1796.406,1909.252,1789.953,1901.292,1789.953z"/>
		<g>
			<path style="fill:#13375B;" d="M1730.961,1356.81l-18.699-4.494l21.817-90.817c12.567-52.32,58.896-90.382,112.665-92.558
				l234.559-9.481l0.776,19.216l-234.559,9.481c-45.214,1.828-84.175,33.836-94.742,77.833L1730.961,1356.81z"/>
		</g>
		<path style="fill:#F47458;" d="M1994.398,1327.283c0,0-262.965,4.501-290.381,0c-27.415-4.501-39.281,29.87-31.098,47.874
			s30.688,24.96,63.832,26.597s308.931,9.411,316.705,2.046c6.35-6.016,89.956-291.844,120.376-396.37
			c6.08-20.892-5.911-42.723-26.789-48.851l0,0c-20.78-6.099-42.594,5.69-48.877,26.416L1994.398,1327.283z"/>
	</g>
	<g>
		<path style="fill:#F8A492;" d="M1717.626,1365.482c1.313,2.442,6.236,5.593,17.007,24.367c3.109,5.419,2.96,14.297,2.96,14.297
			s-0.272,10.916-2.887,11.566c-2.614,0.652-5.354-1.37-6.093-3.366c-0.74-1.997-0.1-6.315-0.838-8.313
			c-0.739-1.997-6.854-5.01-9.32-5.238c-2.466-0.23-2.178,31.964-2.178,31.964s0.529,9.229,0.95,12.284
			c0.357,2.604,2.052,10.333,2.052,10.333s1.798,11.117-1.735,11.45c-2.083,0.195-6.465-9.25-9.163-18.999
			c-2.906-10.5-4.097-21.366-5.206-21.379c-2.605-0.029-2.868,17.634-2.868,17.634s1.82,8.365,1.404,12.132
			c1.991,4.969,2.799,13.78-1.531,13.89c-0.8,0.021-5.405-11.678-5.405-11.678s-1.495-7.989-2.448-11.759
			c-1.682-6.649-1.094-16.692-1.869-21.267c-0.645-3.806-1.676-2.424-2.068-2.635c-0.303-0.163-0.224,4.972-0.242,12.011
			c-0.009,3.546-0.803,7.524-0.157,11.656c0.598,3.824,0.646,9.186,0.593,12.411c-0.15,9.135-5.971,7.377-7.244-1.173
			c-0.484-3.258-0.983-6.808-1.475-10.405c-1.911-13.994-0.606-27.032-2.113-27.354c-1.955-0.419-2.871,23.526-2.871,23.526
			s-4.246,12.728-6.109,0.097c-2.163-14.655-0.725-26.153-0.631-26.656c0.641-3.414-0.804-16.145,3.318-27.641
			c3.039-8.477,7.74-20.521,10.003-26.269L1717.626,1365.482z"/>
		<path style="fill:#F8A492;" d="M1679.246,1399.478l37.947-29.888c6.453-54.396,16.775-203.572,20.047-211.883
			c3.407-8.652-18.953-213.004-18.953-213.004l-67.445,48.444l28.096,154.316
			C1678.443,1155.888,1680.888,1397.471,1679.246,1399.478z"/>
	</g>
	<path style="fill:#184655;" d="M1633.812,1052.955l106.884-20.388c0,0-8.501-90.693-17.026-128.16
		c-18.845-82.817-108.397-97.146-108.397-27.891C1615.271,927.526,1633.812,1052.955,1633.812,1052.955z"/>
	<path style="fill:#F47458;" d="M1552.053,864.874c6.485-17.683,5.591-56.56,5.591-56.56l-0.773-3.348
		c-0.919-0.837-1.811-1.689-2.639-2.57l-19.022,46.986C1535.209,849.382,1543.491,856.084,1552.053,864.874z"/>
	<path style="fill:#F7A491;" d="M1494.156,705.187c0,0,27.864-3.227,45.331,19.415c17.467,22.642,36.292,92.661-7.097,130.73
		c-43.39,38.068-86.261-5.023-92.617-50.711C1433.417,758.933,1430.946,703.538,1494.156,705.187z"/>
	<path style="fill:#F7A491;" d="M1426.938,803.946c5.179,10.091,13.872,15.678,19.417,12.48c5.544-3.198,5.841-13.971,0.662-24.062
		c-5.179-10.091-13.872-15.678-19.417-12.48C1422.055,783.082,1421.759,793.855,1426.938,803.946z"/>
	<path style="fill:#F7CC7F;" d="M1491.039,697.701c0,0,37.227,66.585,63.858,69.662c26.632,3.077,30.128,38.457,30.128,38.457
		s-9.521-81.526-35.886-97.248C1522.774,692.85,1491.039,697.701,1491.039,697.701z"/>
	<path style="fill:#F7A491;" d="M1547.914,784.095c-2.166,11.824,2.189,22.668,9.729,24.22c7.539,1.552,15.406-6.775,17.572-18.6
		c2.165-11.824-2.19-22.668-9.729-24.22C1557.947,763.942,1550.08,772.27,1547.914,784.095z"/>
	<path style="fill:#F7CC7F;" d="M1616.112,765.308c-17.487-33.678-25.608-21.937-24.533-17.289
		c1.075,4.648,5.255,50.25,4.061,50.136c-1.194-0.114-25.771-11.25-25.771-11.25l-0.819,16.449c0,0,12.734,40.025,6.229,66.611
		c0,0,25.084,0.686,49.722-11.463l-1.599-20.758l12.75,14.263c6.515-4.466,12.71-10.031,18.063-16.988
		C1654.215,835.018,1633.601,798.986,1616.112,765.308z"/>
	<g>
		<path style="fill:#B75742;" d="M1003.033,1070.354h3.803c1.393,0,2.523-1.13,2.523-2.522v-23.355c0-1.394-1.129-2.523-2.523-2.523
			h-3.803c-1.393,0-2.523,1.13-2.523,2.523v23.355C1000.51,1069.225,1001.64,1070.354,1003.033,1070.354z"/>
		<g>
			<path style="fill:#50BFA5;" d="M958.461,743.258c7.398-9.69,15.694-15.042,24.659-15.91c13.829-1.338,24.847,8.287,24.956,8.384
				l5.512-6.21c-0.559-0.496-13.875-12.119-31.268-10.438c-11.357,1.099-21.604,7.537-30.459,19.135L958.461,743.258z"/>
		</g>
		<path style="fill:#B75742;" d="M1024.438,724.85l31.547,31.547c3.474,3.474,3.474,9.106,0,12.58l-9.482,9.482
			c-3.474,3.474-9.106,3.474-12.58,0l-31.547-31.547c-3.474-3.474-3.474-9.106,0-12.58l9.482-9.482
			C1015.332,721.375,1020.964,721.375,1024.438,724.85z"/>
		<path style="fill:#F7CC7F;" d="M1105.865,755.69l-80.72,80.72c-22.29-22.29-22.29-58.43,0-80.72
			C1047.435,733.4,1083.575,733.4,1105.865,755.69z"/>
		<g>
			<path style="fill:#B75742;" d="M862.128,897.041l80.946-164.892l25.265,12.403l-80.946,164.892L862.128,897.041z
				 M947.034,743.744l-73.31,149.337l9.71,4.767l73.31-149.337L947.034,743.744z"/>
		</g>
		<g>
			<path style="fill:#B75742;" d="M856.533,907.519l26.635-9.095l59.358,173.834l-26.635,9.095L856.533,907.519z M877.769,909.423
				l-10.236,3.496l53.758,157.436l10.237-3.495L877.769,909.423z"/>
		</g>
		<path style="fill:#96D9C9;" d="M1021.71,843.354l2.644,2.644c0.969,0.969,2.54,0.969,3.509,0l87.589-87.59
			c0.969-0.969,0.969-2.539,0-3.508l-2.645-2.645c-0.969-0.969-2.54-0.969-3.508,0l-87.59,87.589
			C1020.741,840.813,1020.741,842.384,1021.71,843.354z"/>
		<path style="fill:#F7CC7F;" d="M852.81,906.153c0,11.334,9.188,20.522,20.521,20.522s20.521-9.188,20.521-20.522
			c0-11.333-9.188-20.521-20.521-20.521S852.81,894.819,852.81,906.153z"/>
		<path style="fill:#50BFA5;" d="M1050.696,1055.502H891.899c-8.853,0-16.03,7.177-16.03,16.03v12.082h190.857v-12.082
			C1066.726,1062.679,1059.549,1055.502,1050.696,1055.502z"/>
	</g>
	<path style="fill:#B75742;" d="M2539.33,1828.643H334.333c-3.409,0-6.172,2.764-6.172,6.172v9.306c0,3.409,2.763,6.173,6.172,6.173
		H2539.33c3.408,0,6.172-2.764,6.172-6.173v-9.306C2545.502,1831.406,2542.738,1828.643,2539.33,1828.643z"/>
</g>
</svg>
